<svg xmlns="http://www.w3.org/2000/svg" viewBox="0 0 413.32 320.14"><defs><style>.a{fill:#0089d6;}</style></defs><title>azure</title><path class="a" d="M245.21,378.19c53.1-9.38,97-17.15,97.46-17.25l.92-.2-50.13-59.63c-27.58-32.8-50.14-59.76-50.14-59.91S295.09,98.35,295.38,97.84c.1-.17,35.33,60.65,85.4,147.44,46.88,81.24,85.52,148.23,85.88,148.86l.66,1.14-159.33,0-159.33,0ZM54,360c0-.08,23.62-41.09,52.49-91.12l52.5-91,61.17-51.34c33.65-28.23,61.27-51.37,61.38-51.41a10.86,10.86,0,0,1-1,2.47C279.91,79,250,143.14,214.13,220.11L148.89,360l-47.45,0C75.35,360.13,54,360.09,54,360Z" transform="translate(-54 -75.15)"/></svg>