<?xml version="1.0" encoding="utf-8"?>
<!-- Generator: Adobe Illustrator 22.0.0, SVG Export Plug-In . SVG Version: 6.00 Build 0)  -->
<svg version="1.1" id="Layer_1" xmlns="http://www.w3.org/2000/svg" xmlns:xlink="http://www.w3.org/1999/xlink" x="0px" y="0px"
	 viewBox="0 0 900 800" style="enable-background:new 0 0 900 800;" xml:space="preserve">
<style type="text/css">
	.st0{fill:#563D7C;}
	.st1{fill:#FFFFFF;}
</style>
<path class="st0" d="M846,664c0,72.6-59.4,132-132,132H186c-72.6,0-132-59.4-132-132V136C54,63.4,113.4,4,186,4h528
	c72.6,0,132,59.4,132,132V664z"/>
<path class="st1" d="M328.3,249.2h151.2c27.9,0,50.3,6.4,67.1,19.2c16.8,12.8,25.3,32.1,25.3,58c0,15.7-3.8,29.1-11.5,40.3
	c-7.7,11.2-18.6,19.9-32.9,26v0.9c19.2,4.1,33.7,13.2,43.6,27.2c9.8,14.1,14.8,31.7,14.8,53c0,12.2-2.2,23.6-6.5,34.2
	c-4.4,10.6-11.2,19.8-20.5,27.5S537.6,549,523,553.6c-14.6,4.5-31.8,6.8-51.9,6.8H328.3L328.3,249.2z M382.7,379.5h88.9
	c13.1,0,24-3.7,32.7-11.2c8.7-7.5,13.1-18.1,13.1-32.1c0-15.7-3.9-26.8-11.8-33.1c-7.8-6.4-19.2-9.6-34-9.6h-88.9V379.5z
	 M382.7,515.9H479c16.6,0,29.5-4.3,38.5-12.9c9.2-8.5,13.8-20.7,13.8-36.4c0-15.4-4.5-27.2-13.8-35.6c-9.2-8.4-22-12.4-38.5-12.4
	h-96.3V515.9z"/>
</svg>
