<svg xmlns="http://www.w3.org/2000/svg" viewBox="0 0 477.23 342.41"><defs><style>.a{fill:#0091e2;}</style></defs><title>docker</title><path class="a" d="M483.91,221c-1.33-1.1-13.28-10.18-39-10.18a124.77,124.77,0,0,0-20.15,1.77c-4.86-33.86-33-50.24-34.08-51.13l-6.86-4-4.43,6.42a94.58,94.58,0,0,0-12.17,28.33c-4.65,19.26-1.77,37.4,8,52.9-11.74,6.64-30.77,8.19-34.75,8.41H26.19a14.83,14.83,0,0,0-14.83,14.83,223.8,223.8,0,0,0,13.72,80.79c10.84,28.33,27,49.36,47.81,62.19,23.46,14.39,61.75,22.58,104.91,22.58A321.81,321.81,0,0,0,236,428.58a240.2,240.2,0,0,0,76.14-27.67,208.27,208.27,0,0,0,51.8-42.5c25-28.11,39.84-59.54,50.68-87.42h4.43c27.22,0,44.05-10.85,53.34-20.15A58.84,58.84,0,0,0,486.57,230l2-5.76Z" transform="translate(-11.33 -91.48)"/><path class="a" d="M55.4,244.42H97.46a3.72,3.72,0,0,0,3.76-3.76h0V203a3.73,3.73,0,0,0-3.76-3.76H55.4A3.73,3.73,0,0,0,51.64,203h0v37.63a3.86,3.86,0,0,0,3.76,3.76h0" transform="translate(-11.33 -91.48)"/><path class="a" d="M113.39,244.42h42.06a3.72,3.72,0,0,0,3.76-3.76h0V203a3.73,3.73,0,0,0-3.76-3.76H113.39a3.73,3.73,0,0,0-3.76,3.76v37.63a3.86,3.86,0,0,0,3.76,3.76" transform="translate(-11.33 -91.48)"/><path class="a" d="M172.49,244.42h42a3.73,3.73,0,0,0,3.77-3.76h0V203a3.73,3.73,0,0,0-3.77-3.76h-42a3.73,3.73,0,0,0-3.76,3.76h0v37.63a3.6,3.6,0,0,0,3.76,3.76h0" transform="translate(-11.33 -91.48)"/><path class="a" d="M230.7,244.42h42.06a3.72,3.72,0,0,0,3.76-3.76V203a3.73,3.73,0,0,0-3.76-3.76H230.7a3.73,3.73,0,0,0-3.76,3.76h0v37.63a3.72,3.72,0,0,0,3.76,3.76h0" transform="translate(-11.33 -91.48)"/><path class="a" d="M113.39,190.64h42.06a3.88,3.88,0,0,0,3.76-3.76V149.25a3.73,3.73,0,0,0-3.76-3.76H113.39a3.73,3.73,0,0,0-3.76,3.76v37.63a4,4,0,0,0,3.76,3.76" transform="translate(-11.33 -91.48)"/><path class="a" d="M172.49,190.64h42a3.88,3.88,0,0,0,3.77-3.76V149.25a3.73,3.73,0,0,0-3.77-3.76h-42a3.73,3.73,0,0,0-3.76,3.76h0v37.63a3.73,3.73,0,0,0,3.76,3.76" transform="translate(-11.33 -91.48)"/><path class="a" d="M230.7,190.64h42.06a3.88,3.88,0,0,0,3.76-3.76V149.25a3.88,3.88,0,0,0-3.76-3.76H230.7a3.73,3.73,0,0,0-3.76,3.76h0v37.63a3.88,3.88,0,0,0,3.76,3.76" transform="translate(-11.33 -91.48)"/><path class="a" d="M230.7,136.63h42.06a3.73,3.73,0,0,0,3.76-3.76V95.24a3.88,3.88,0,0,0-3.76-3.76H230.7a3.73,3.73,0,0,0-3.76,3.76h0v37.63a3.88,3.88,0,0,0,3.76,3.76" transform="translate(-11.33 -91.48)"/><path class="a" d="M289.36,244.42h42.05a3.72,3.72,0,0,0,3.76-3.76V203a3.73,3.73,0,0,0-3.76-3.76H289.36a3.73,3.73,0,0,0-3.77,3.76h0v37.63a3.87,3.87,0,0,0,3.77,3.76" transform="translate(-11.33 -91.48)"/></svg>