<svg xmlns="http://www.w3.org/2000/svg" viewBox="0 0 490.16 490.16"><defs><style>.a{fill:#009889;}.b{fill:#fcfdfd;}</style></defs><title>fastapi_final</title><path class="a" d="M235.42,5.45h31.09a11.66,11.66,0,0,0,2,.65c10.24,1.42,20.62,2.19,30.71,4.31q90.58,19.07,146.83,92.77c26.5,34.8,42.19,74.15,47.49,117.61.58,4.73,1.23,9.46,1.85,14.19v32.41a10.82,10.82,0,0,0-.68,2c-1.42,10-2.21,20.16-4.29,30Q470.76,392.59,393.93,449C360,473.92,321.87,488.69,280,493.76c-4.73.58-9.46,1.23-14.19,1.85H233.44a7.07,7.07,0,0,0-1.67-.66c-7.64-1-15.36-1.5-22.93-2.87-62.82-11.36-114-42.22-153.09-92.65-27.22-35.13-43.29-75-48.68-119.2-.53-4.29-1.23-8.56-1.84-12.84V234.32a12.93,12.93,0,0,0,.65-2c1.42-10.24,2.19-20.61,4.32-30.7Q30,107.74,107.75,51.26c33.68-24.45,71.44-38.95,112.8-44C225.51,6.7,230.47,6.07,235.42,5.45Zm37.85,82.07-.81-.14c-.26.43-.56.84-.79,1.29q-15.8,30.64-31.58,61.29-21.92,42.69-43.73,85.42Q184,259.62,171.89,284c-3.22,6.44-3.06,6.55,4.36,6.54,19.41,0,38.81,0,58.21,0,8.49,0,7.56-.93,7.57,7.62q.06,57.54.09,115.09c0,1.24.81,2.47,1.25,3.71a14.29,14.29,0,0,0,2.44-2.75c3.5-6.85,6.86-13.78,10.32-20.66,10.61-21.12,21.29-42.22,31.85-63.37q20.13-40.29,40.12-80.64c5.18-10.4,10.42-20.78,15.91-31.72a32.29,32.29,0,0,0-4.4-.62q-30.44-.07-60.85-.07c-5.21,0-5.22,0-5.22-5.34q0-59.53.09-119.07C273.63,91,273.39,89.25,273.27,87.52Z" transform="translate(-5.23 -5.45)"/><path class="b" d="M235.42,5.45c-4.95.62-9.91,1.25-14.87,1.85-41.36,5-79.12,19.51-112.8,44Q30.17,107.57,10.2,201.59c-2.13,10.09-2.9,20.46-4.32,30.7a12.93,12.93,0,0,1-.65,2V5.45Z" transform="translate(-5.23 -5.45)"/><path class="b" d="M495.39,235c-.62-4.73-1.27-9.46-1.85-14.19-5.3-43.46-21-82.81-47.49-117.61Q390,29.56,299.22,10.41c-10.09-2.12-20.47-2.89-30.71-4.31a11.66,11.66,0,0,1-2-.65H495.39Z" transform="translate(-5.23 -5.45)"/><path class="b" d="M265.85,495.61c4.73-.62,9.46-1.27,14.19-1.85C321.87,488.69,360,473.92,393.93,449q76.71-56.26,96.49-149.58c2.08-9.88,2.87-20,4.29-30a10.82,10.82,0,0,1,.68-2V495.61Z" transform="translate(-5.23 -5.45)"/><path class="b" d="M5.23,267.39c.61,4.28,1.31,8.55,1.84,12.84,5.39,44.16,21.46,84.07,48.68,119.2,39.09,50.43,90.27,81.29,153.09,92.65,7.57,1.37,15.29,1.91,22.93,2.87a7.07,7.07,0,0,1,1.67.66H5.23Z" transform="translate(-5.23 -5.45)"/><path class="b" d="M273.27,87.52c.12,1.73.36,3.47.36,5.2q0,59.54-.09,119.07c0,5.32,0,5.33,5.22,5.34q30.42,0,60.85.07a32.29,32.29,0,0,1,4.4.62c-5.49,10.94-10.73,21.32-15.91,31.72Q308,289.86,288,330.18c-10.56,21.15-21.24,42.25-31.85,63.37-3.46,6.88-6.82,13.81-10.32,20.66a14.29,14.29,0,0,1-2.44,2.75c-.44-1.24-1.25-2.47-1.25-3.71Q242,355.71,242,298.16c0-8.55.92-7.62-7.57-7.62-19.4,0-38.8-.05-58.21,0-7.42,0-7.58-.1-4.36-6.54q12.17-24.31,24.47-48.58,21.79-42.75,43.73-85.42,15.74-30.68,31.58-61.29c.23-.45.53-.86.79-1.29Z" transform="translate(-5.23 -5.45)"/></svg>