<svg xmlns="http://www.w3.org/2000/svg" viewBox="0 0 481 429.09"><title>flask</title><path d="M154.74,425.55c-18.33-14.41-37.87-28.23-51.23-47.68-28.1-34.32-49.74-74-64.54-115.79C30,234.93,27,205.83,15.44,179.73c-12.06-19,2.07-39.68,22.83-45.7,9.24-1.78,25.5-10.5,5.88-4.26-17.59,12.9-19.29-11.72-1.26-13.28,12.31-1.63,16.84-11.71,12.63-20.78-13.21-8.62,32-18.09,9.27-30.95C41.07,39.17,98,34.25,83.94,63.31,80.58,85.66,123.7,59.21,113.69,85c10.17,12.4,38.08,2.82,37.39,20.21,14.81,1,19.9,13.48,33.8,14.44,14.41,6.51,40.54,11.64,45.44,27.88-14.29,11.32-47.4-23.38-49,7.95,4.31,46.29,3.21,94,20.15,138.05,8,26.69,27.43,47.71,45,68.49,16.78,20.36,39.51,34.7,62.67,46.76,20.33,9.59,42.24,15.95,64.38,19.93,9-6.87,24.85-32.41,38.86-21.64.67,12.1-27.81,25.3-1.34,24,15.55-4.69,26.33,12,39.13-3.05,11.79,14,49-8.93,40.63,19.63-11.35,7.32-27.9,2.9-39.26,13-18.74-9.36-33.66,8.37-54.41,6.13a399.85,399.85,0,0,1-69.84,5.83c-38.32-3-77.45-4.3-113.91-17.65-20.53-6-40.57-17.66-58.62-29.36Zm32.36,14c20.05,8.67,39.66,17.81,61.64,20.57,34.87,4.84,70.87,12.3,105.87,5.5-15.84-7.15-32.21,2.79-48-5.11-18.92,4.07-39.23-1-58.47-3.56-21.87-9.74-45.48-16.44-66-29.09-25.6-9.35,13.24,12,20.15,13.72,16,9.08-17.59-4.66-22.33-8.43-13.4-7.52-15.11-5.95-1.33,1.69,2.78,1.62,5.52,3.32,8.43,4.71Zm-38.16-27c19.44,7.2-.08-13.67-9-12.45-3.94-6.85-15.07-11.17-7.22-14.85-14.12,4.9-14.79-18.64-21.43-15.27-14.94-4.72-5.81-21.43-23.61-31.69C86.07,327.54,70,318.16,64.9,301.85c-2.27-8.35-18.14-32.33-8.39-10,8.3,21.48,22.91,39.88,35.07,58.25,9.44,17.5,20.59,35.78,37.79,46.7,5.79,5.56,11.39,14.08,19.57,15.82ZM93,351.15C93.64,348.21,96.52,357.5,93,351.15Zm79.26,70.09C176.52,419.31,166,418.81,172.22,421.24Zm10.54,3.85C181.67,419.77,178,428.06,182.76,425.09Zm13.21,5.5C202.25,424.61,186.28,426.82,196,430.59Zm22.63,12.62C222.42,437.56,206.37,441.08,218.6,443.21Zm-43.46-30.3C184.91,406.6,162.53,412.83,175.14,412.91Zm9.91,4.94C184.77,414.51,181.52,419.35,185.05,417.85Zm49.5,30.9c8,5,46.48,11,22.36,2.06C252.87,451.66,212.19,439.3,234.55,448.75ZM156,387.54C155.19,384.19,143.61,383.84,156,387.54ZM179,401C185,396.79,166.56,397.75,179,401Zm19.38,11.89C207,409.62,184.43,409.6,198.39,412.86Zm-51.81-35.53c9.34,7.16,37.66.92,14.3-4.28-10.63-5.66-34.59-9.54-18.26,3.42l4,.86ZM211.52,417C215.41,410.34,195.21,413.18,211.52,417Zm-19.73-15.68c22.83,6.46-19.2-14.44-5.63-2.38l3,1.36,2.63,1Zm39.56,22.87c21.63.2-19.53-3,0,0Zm-93.09-59.33C137.42,360.79,132.92,365.15,138.26,364.82Zm129.68,79.85C268.51,437.39,260.88,450.08,267.94,444.67Zm-92.77-57.25C173.86,383.59,168.41,387.26,175.17,387.42Zm-34.86-25.13C152.73,361.54,123.31,356.82,140.31,362.29ZM99,335.6C97.48,329.65,85.51,324.9,99,335.6Zm108.4,68.79C205.15,401.8,206.35,405,207.42,404.39Zm67.47,41.4C274.67,441.83,271.21,447.3,274.89,445.79Zm-73.44-47.57C202.66,393.12,190.86,396.68,201.45,398.22Zm-50.27-31.85C160.42,365.38,136.39,360.13,151.18,366.37Zm85,52.83C250.6,413.5,222.18,416.42,236.21,419.2Zm-44.23-30c16.59,2.14-19.74-11.28-3.64-1.2l3.64,1.2Zm57.66,35.45c15.49-9.26,10.38,21.68,26.27,2.61,15.68-11.44-13.54,14.16,5.79,2.05,14-9.35,34.61,4.43,47.65,8.92,9.38-.46,18.49,8.11,28.11,2.9,18.5-5-36.19-7.4-21.85-16.24-16.94,4.93-29.45-5.87-37.78-16.72-19-4.39-40.95-14.1-50.43-30.9-3.86-6.31,5.58.89-3.34-9.43-11.44-10.18-17.16-21.73-24.84-34.11-9.18-4.89-10.25-19.31-11.17-.48.07-11.88-11.08-19.88-13.81-16.55-.05-11.45,11.94-5.71,3.55-14.18-1.81-11.86-7.75-24.21-9.54-37.6-2.78-6.46-.39-20.28-9.48-5.67-3.31,15.44-1.1-19,4-7.63,6.76-11.58-2.42-10.21-2.8-8.61,4.4-9.77,2.79-23.63-1.15-18.34,2.35-10.36,3.71-38.11-3.51-33.2,4.37-10.83,8.3-49.55-10.69-34.79-7.7.11-21,2.8-27.32,5.93,19.75,10.89-2,3.93-10,2.2-1,10.08-9,5.72-19,5.82,15.89,2-7.74,16.25-16.85,10.7-11.84,5.66,10.21,19.78.23,24.15C93,212,73.61,203.08,75.13,218.29c-11.5-4.84-1.59,18,4.16,10.3,19.55,5.29,13.77,17.35,14.26,28.81-3.18,6.68-15.72-15.69-2.79-14.66-10.2-16.57-11.29-6-19.76,1.71-2,.56,21.62,11,6.81,16.1,13,2,13.4,13.41,16.06,20.62,7.83,8.16,6.22-9,15.59.8-5.93-8.73-31.4-24.61-10.89-19.52-.11-8.79-3.71-15.87,2.57-15.7,6.23-11.27-6.51,27.79,7.51,13.46,3.89-1.69,4.85-11.28,11.83.91,10.14,10,3.66,17.2-10.64,8.07,2.56,8.68,19.13,11.78,16,25.35,3.3,11.94,7.92,7.54,11.94,6.85,3.16,11.6,5,3.07,5.11-2.45,14.46,3.1,11.07,11.65,15.59,17.62,10,4.5-14.26-30.49,2.85-10.52,18,16.25,6.75,23-9.4,20.43,10.22-.82,13.52,13.82,26.31,13.31,11.66,5.55,19.55,26.86-.55,18-7-6.29-31.64-14-11.49-2.09,18.61,8.62,33.39,13.78,51.34,24.59C230.41,389.44,236,400,240.83,402c-10.8,5.15-32.54-4.12-16.4-7-10.06-1.84-21.39-6.93-11.74,5.62,8.2,6.84,29.05,6.12,32.79,6.9-3.17,7-8.61,7.53.13,8.07-9.75,5.2,3.12,6,4,9Zm-19.93-56.29c-5.94-6.2-7.47-17.82-1.06-7.71,3.29,1.32,10.53,19,1.06,7.71Zm64.91,41.24C298.32,409.34,294.72,412.39,294.62,409.58Zm-74.28-56.44C220.11,343.76,222.49,360.37,220.34,353.14Zm-6.45-8.68C206.43,330,223.29,348.54,213.89,344.46Zm-78.18-54C140.09,289.33,137.86,298,135.71,290.5Zm62.22,33.72C200.62,314.12,201.09,332.7,197.93,324.22Zm-44-30.56C150.87,288.08,160.45,298.89,154,293.66Zm37.73,12.09c-7.07-15.83,5-8.65,1.56,2.59l-1.56-2.59Zm-65.06-43.39c-3.16-5.19-8.38-20.43-6.7-25.08,1.52,7.57,16.11,32.6,7.16,10.36-9.9-18.64,11.83,6.06,14.06,10.71,1,4.62-6.11-1.27-1.26,9.58C131.07,255.58,134.68,274.75,126.64,262.36Zm-20.11-13.85C107.36,236.43,111.14,256.79,106.53,248.51Zm9,3.11C119.89,242.51,122.9,264.33,115.58,251.62ZM93.82,234.79c-7.48-7.44-12.9-14.29.35-4.61,5.11.19-11.34-15.6,1.23-5C108.63,227.57,101.93,246.84,93.82,234.79Zm11.43-.3C109.6,230.19,107.56,238.73,105.25,234.49Zm7,2.26C105.69,224.39,120.28,241.93,112.28,236.75Zm-14-13.36C76.54,204,125.65,233.52,101.86,227l-3.56-3.59Zm62.35,36.23c-9.41-5.65-2.49-39.75.72-16.43,9.15-3-.51,12.05,6.32,11.91C166.62,264.57,163.56,268,160.65,259.62Zm23.07,13.63C184.64,263,185.66,280.27,183.72,273.25Zm-4-4C180.75,264.9,179.82,274.46,179.71,269.29ZM102.57,217c-14-19.28,40.63,19.52,9,4.9C108.22,221.05,104.23,220.74,102.57,217ZM147,240.57c-1.32-16.24,3,2.69,0,0ZM180.7,262.2C183.31,253,180.89,268.32,180.7,262.2Zm-76-52.54c8.31-1.77,34.44,14.6,10.45,4.68C112.49,211.39,106.81,212.73,104.71,209.66Zm71.36,35.57c.88-16.61,5-9.92,0,2.37l0-2.37ZM110.9,203.88c3.38-5-9-22.45,1.78-6.27,4.66,3.7,13.48,6.2,5.69,7.75C130.62,216.17,115.38,208.29,110.9,203.88ZM172.54,240C174.88,221.12,174.6,251.12,172.54,240Zm-68.71-53.63C106.41,185.31,105.19,189.86,103.83,186.41ZM119.91,196C124,187.3,127.54,205.66,119.91,196Zm45.35,25.23C165.21,217.87,166.11,226.06,165.26,221.21Zm-2.63-5.82C156.34,199.86,168.49,223.62,162.63,215.39Zm-3.86-10.18c-1.06-6.42,3.59,8.06,0,0ZM165.06,195c-4.32-7.61,5.45-33.55,6.54-17.46-4.56,12.53-1.31,19.54,1.87,2.73,5.87-13.23-1.27,26.1-8.41,14.73Zm6.46-38.57C173.4,154.11,171.94,159.21,171.52,156.42ZM160.73,369.13C158.16,366.89,161.05,370.55,160.73,369.13ZM183,380.38c12.37,3.17,12.31-1.93,1.13-3.44-6-5.59-25-11.53-8-.7,1.12,2.85,4.67,2.79,6.87,4.14ZM139,351.21c6.82,5.08,25.67,14.4,9.71,1.93,5.38-6.25-10.3-9.58-5.1-13.76-13.23-8.1-10.43-7.38-1.16-7.12-15.9-7.11,2.29-6.58,1.43-10.22-6.13-1.21-30.45-10.81-16.14.79-14.55-7.42-3.47,2.76-7.86,1.69-14.88-4.06,13.24,11.33-2.37,7.51,8.54,6.76,23,17.32,3.61,7.15-2.55,3.67,13.86,9.24,17.88,12Zm23.26,13.36C190.58,373.68,148.44,353.44,162.3,364.57ZM281.36,436.7C281.73,431.08,277.5,441.48,281.36,436.7Zm12.24,5.15c6.52-6.33.26,10.07,10.81-1.55.11-8.32-.33-13.23-12.12-3.13-3.25,1.8-4.7,9.47,1.31,4.68Zm-194.25-122C97.34,312,85.3,312,99.35,319.85Zm13.07,8.57C107.56,320.37,95.1,321.13,112.42,328.42Zm74.33,44.83c7.26,6.44,33.34,4.73,8.82.79C191.94,368.67,172.51,370,186.75,373.25Zm102.19,63.11C300.11,427,278.12,440.54,288.94,436.36Zm23.24,16C312.25,449.32,307.36,453.64,312.18,452.32Zm0-4.21c12.37-13.1-12,.78,0,0ZM67.21,293c-10.54-15.05-6.55-21.81-16.72-34.09-1.93-9.39-17.44-30.71-8-8.13C51.09,263.94,53.65,284.39,67.21,293ZM308.33,444C331.09,429.24,299,437.54,308.33,444Zm17.37,6.8C337.1,441,318.49,448.7,325.7,450.75ZM95.48,303.23C98.74,298.37,87.05,302.61,95.48,303.23ZM322.08,446.1c11-7.11-2.55-6-2,.66l2-.66ZM172.33,351.72C172,346.91,166.5,352.12,172.33,351.72Zm9.25,5.32C178.64,351.1,177.06,358,181.58,357Zm158.2,93.87c14.14-10.2-8.57-2-3,1.93l3-1.93Zm-5.41-2.61C345.88,438.65,322.21,452.57,334.37,448.3ZM362,466.71C369.76,461.54,352.63,465,362,466.71Zm-259.46-167c10.36,2.32,41.41,25.52,23.09,1.6-9.38-2.78-3.75-25.71-13.32-21.65,6.42,10.73,5.28,15.3-8.2,8.53-17-8.27-9.53,4.1-6.22,7.51-4.51,1,6,3.92,4.65,4ZM55.35,262.44c1.85-7.68-17.09-42.22-9-17.31C49.34,250.34,49,260.23,55.35,262.44ZM142,315.87C136.68,311.41,141.76,315.24,142,315.87Zm13.14,3.06C155.15,310.8,140.63,315.63,155.16,318.93Zm113.89,71.79c-2.18-5.55-8.59-.13,0,0Zm5.46,4C273.71,391.61,271.36,395.32,274.51,394.72Zm45.15,28.43C324,419.94,314.24,422.74,319.66,423.15ZM78.93,268.46C91.35,263.65,65.63,265,78.93,268.46ZM259,381.91C258.88,373.87,251.1,383.91,259,381.91ZM74,257C82,254.33,66.65,255.25,74,257Zm23.15,11.22C97,265.6,94.73,269.24,97.18,268.24Zm282.4,173.17c10.26-2.08,33.63,5.22,37.41-2.72-12.46-.3-43.1-8.79-44.55,2l2.73.43,4.41.26Zm-275-171.32C104.72,262,98.19,269.79,104.54,270.09ZM43.66,227.87C40.9,212.34,33.15,225.52,43.66,227.87Zm14.52,3.64C58.36,226.53,44.89,227,58.18,231.51Zm8.3,4.08C64.08,233.65,64.6,238,66.48,235.59Zm52.19,33.48C121.13,266.82,112.86,267.4,118.67,269.07ZM61,226.4C59.55,214.68,44.14,224.64,61,226.4ZM31.19,207.09C30.77,201.68,28.29,209.13,31.19,207.09Zm4.43-3.34C34.89,197.33,31.82,204.56,35.62,203.75Zm24.46,14.6c10.34-4.07-18.84-8.41-2.12-.77Zm327.35,202.2C394.05,414.48,379,418.67,387.43,420.55ZM427,441.05C429.63,433.2,420.3,442.08,427,441.05ZM62.58,205.53C63.67,197.94,54.38,207,62.58,205.53Zm-34.8-23.32C25.91,171.49,26.16,152.68,44,159c-23.87,4.74,16.52,29.67,11.42,10,10,.5,19.64-5.93,14.37,3.82,19.77-2.18,33.48-19.33,52.58-16.93,14.88-2,31.15-3.46,47.18-9.45,13.19-1,25.88-15.14,18.65-23.55-18-1.53-36.8.72-56.67,4.67-22,4.58-42,13.28-64.23,17-21.65,2.91,4.36,8-1.85,9.15-11.3,3.92,13.48,6.57-1.46,10.7-9.23-1.76-18.83-4.93-14.89-14.65-20.74,2.69-39,11.3-22.58,32.41Zm50-25.46c4.86-17.91,26.05,14.75,8,2.38C83.57,157.52,80,156.2,77.76,156.75Zm.94-8.68C85.72,142.84,82.44,151,78.7,148.07Zm8.92.14c.63-8.25,20.4,4.36,3.26,3l-3.26-3Zm12.19-4.9C104.26,138.1,101.09,147.93,99.81,143.31Zm3.12-2.09c7.41-8.91,42-5.69,16.68-.87C112.83,135.24,107.63,143.36,102.93,141.22Zm45.12-7C146.92,109.93,170.46,142.91,148.05,134.26Zm12.8-.07c4.68-12.26,18.16-4.92,2.16-2.46C163.36,133,162.54,138.06,160.85,134.19Zm-103.32,65c14-8.56-14.85-7.43,0,0Zm10.34,2.87C72.77,196.89,57.21,200,67.87,202.1ZM37.4,180.48C45.39,174.34,28,178.15,37.4,180.48ZM450.32,438.8C450.55,431.68,444.21,442,450.32,438.8Zm-42-28.63C409.56,402,403,410.89,408.36,410.17Zm53.5,31.4c11.17,0,33.85-3.47,9.54-3.46-3.81.59-22.23.47-9.54,3.46ZM77,197.08c9-.62,14.15-10-1.75-9.44-24.63-2.55,21.74,8.44-3.16,5.3C68.71,195.15,76.77,197.69,77,197.08Zm8,4C84,195.3,82.13,204.19,84.93,201.11Zm9.44-25.19C98.29,171.06,88.94,174.62,94.37,175.92ZM64.3,125.66c16.14-5.49,38.2-11.66,45.82,2.7-7.75-9.33-3.13-18.52,4.2-4.87,10.35,13.8,15.54-6.28,8.8-10.91,7.68,9.53,16.41,14,5.14.6,12.24-14.73-24.51,1.93-32.87,1.76C91.37,116.75,53.89,124.5,64.3,125.66Zm9.46-18.11c9.2-7,31.83,4.13,17.31-6.9C89.65,99.39,59.27,109,73.76,107.55Zm33.55,1.38c10.77.28-4.65-14.47,8.19-7.78-2.11-6.89-15-8.18-21.22-10.93C90.73,96.51,101.5,109,107.31,108.93ZM79.64,78.48C83.37,73.43,73.11,81,79.64,78.48Zm13.71,3.28c17.36-2.3-4.42-7.47-3.49-.18l3.49.18Zm-25.6-20c-12.22-16,23,2.68,10.57-14C67.87,39.38,57.82,57.07,67.75,61.73ZM224.59,146.2c5.6-9.93-23.14-13.39-3.78-3.52C222.59,143.28,222.19,146.89,224.59,146.2Z" transform="translate(-11 -43.47)"/></svg>