<svg xmlns="http://www.w3.org/2000/svg" viewBox="0 0 299 240.63"><defs><style>.a{fill:#ea4335;}.b{fill:#4285f4;}.c{fill:#34a853;}.d{fill:#fbbc05;}</style></defs><title>gcp</title><path class="a" d="M292.23,189.63h9.12l26-26,1.27-11a116.84,116.84,0,0,0-190,57,14.13,14.13,0,0,1,9.12-.54l52-8.58s2.65-4.37,4-4.1a64.85,64.85,0,0,1,88.73-6.75Z" transform="translate(-102.5 -123.37)"/><path class="b" d="M364.36,209.6a117.07,117.07,0,0,0-35.29-56.9l-36.48,36.48a64.79,64.79,0,0,1,23.8,51.43v6.47a32.47,32.47,0,1,1,0,64.93H251.46L245,318.58v38.94l6.47,6.48h64.93a84.45,84.45,0,0,0,48-154.4Z" transform="translate(-102.5 -123.37)"/><path class="c" d="M186.44,363.63h64.93v-52H186.44a32.27,32.27,0,0,1-13.4-2.92l-9.12,2.83-26.18,26-2.28,9.12A84,84,0,0,0,186.44,363.63Z" transform="translate(-102.5 -123.37)"/><path class="d" d="M186.44,195a84.45,84.45,0,0,0-51,151.39l37.67-37.67a32.46,32.46,0,1,1,43-43l37.66-37.66A84.35,84.35,0,0,0,186.44,195Z" transform="translate(-102.5 -123.37)"/></svg>