<svg xmlns="http://www.w3.org/2000/svg" viewBox="0 0 370.11 458.87"><defs><style>.a{fill:#6762a6;}.b{fill:#fff;}</style></defs><title>heroku</title><path class="a" d="M395.23,482.06H112.65A43.76,43.76,0,0,1,68.89,438.3V67a43.76,43.76,0,0,1,43.76-43.76H395.23A43.77,43.77,0,0,1,439,67V438.3a43.77,43.77,0,0,1-43.77,43.76Z" transform="translate(-68.89 -23.19)"/><path class="b" d="M300.83,418.92V236.69s11.85-43.61-146,17.84c-.29.78-.29-168.51-.29-168.51l51.58-.31V194.17s144.41-56.88,144.41,43.14V418.92Zm29.39-267.57H275.51C295.21,127.27,313,86,313,86H369.6s-9.68,26.88-39.38,65.33ZM155.47,418.61V314.83l51.9,51.89-51.9,51.89Z" transform="translate(-68.89 -23.19)"/></svg>