<?xml version="1.0" encoding="utf-8"?>
<!-- Generator: Adobe Illustrator 22.0.0, SVG Export Plug-In . SVG Version: 6.00 Build 0)  -->
<svg version="1.1" id="Layer_1" xmlns:serif="http://www.serif.com/"
	 xmlns="http://www.w3.org/2000/svg" xmlns:xlink="http://www.w3.org/1999/xlink" x="0px" y="0px" viewBox="0 0 300.5 300.9"
	 style="enable-background:new 0 0 300.5 300.9;" xml:space="preserve">
<style type="text/css">
	.st0{fill:#0A66C2;}
</style>
<g transform="matrix(1,0,0,1,-138.462,-287.425)">
	<path class="st0" d="M390.6,538.7h-42.7v-66.8c0-15.9-0.3-36.5-22.2-36.5c-22.2,0-25.6,17.4-25.6,35.3v68h-42.7V401.3h41V420h0.6
		c8.3-14.3,23.9-22.8,40.4-22.2c43.3,0,51.2,28.5,51.2,65.5L390.6,538.7z M209.2,382.5C209.2,382.5,209.2,382.5,209.2,382.5
		c-13.6,0-24.8-11.2-24.8-24.8c0-13.6,11.2-24.8,24.8-24.8c13.6,0,24.8,11.2,24.8,24.8c0,0,0,0,0,0
		C234,371.3,222.8,382.5,209.2,382.5 M230.6,538.7h-42.7V401.3h42.7V538.7z M411.9,293.3H166.4c-11.5-0.1-21.1,9.2-21.3,20.8v246.5
		c0.1,11.5,9.7,20.9,21.3,20.8h245.5c11.6,0.1,21.2-9.2,21.3-20.8V314C433,302.5,423.4,293.1,411.9,293.3"/>
</g>
</svg>
