<svg xmlns="http://www.w3.org/2000/svg" viewBox="0 0 207.97 222.26"><defs><style>.a{fill:#4dabcf;}.b{fill:#4d77cf;}</style></defs><title>numpy logo</title><polygon class="a" points="88.38 45.16 51.25 26.42 10.49 46.76 48.63 65.91 88.38 45.16"/><polygon class="a" points="105.41 53.75 144.34 73.41 103.95 93.69 65.75 74.51 105.41 53.75"/><polygon class="a" points="157.41 26.7 197.41 46.76 161.63 64.72 122.62 45.04 157.41 26.7"/><polygon class="a" points="140.19 18.06 104.18 0 68.56 17.78 105.67 36.49 140.19 18.06"/><polygon class="a" points="112.04 173.12 112.04 222.26 155.66 200.49 155.62 151.33 112.04 173.12"/><polygon class="a" points="155.6 134.17 155.55 85.53 112.04 107.16 112.04 155.82 155.6 134.17"/><polygon class="a" points="207.97 125.06 207.97 174.39 170.76 192.95 170.73 143.85 207.97 125.06"/><polygon class="a" points="207.97 107.81 207.97 59.47 170.69 78 170.72 126.74 207.97 107.81"/><path class="b" d="M170.14,158.4l-29.38-14.78v63.84S104.82,131,101.5,124.13c-.43-.89-2.19-1.86-2.64-2.1-6.48-3.38-25.36-12.94-25.36-12.94V221.92l26.12,14v-59s35.55,68.32,35.92,69.07,3.92,7.94,7.74,10.47c5.07,3.37,26.84,16.46,26.84,16.46Z" transform="translate(-73.5 -51.24)"/></svg>