<?xml version="1.0" encoding="utf-8"?>
<!-- Generator: Adobe Illustrator 22.0.0, SVG Export Plug-In . SVG Version: 6.00 Build 0)  -->
<svg version="1.1" id="layer" xmlns="http://www.w3.org/2000/svg" xmlns:xlink="http://www.w3.org/1999/xlink" x="0px" y="0px"
	 viewBox="0 0 652 652" style="enable-background:new 0 0 652 652;" xml:space="preserve">
<style type="text/css">
	.st0{fill:#3F4F75;}
	.st1{fill:#80CFBE;}
	.st2{fill:#FFFFFF;}
</style>
<path class="st0" d="M594.5,649.8H57.8c-28.4,0-51.5-23.7-51.5-53V57.2c0-29.3,23.1-53,51.5-53h536.8c28.4,0,51.5,23.7,51.5,53
	v539.3C646,626.1,622.9,649.8,594.5,649.8"/>
<path class="st1" d="M166.3,256.2c0.9,1.2,1.6,2.5,2.2,3.7c-1.9-1.6-3.7-2.8-5.9-3.4c-0.3-0.9-1.2-1.9-2.5-2.2h-0.3
	c-0.3-0.3-0.6-0.6-0.9-1.2C161.3,254,164.1,255,166.3,256.2 M147,282.4c1.6,0,3.1-0.3,4.7-0.9c0.3,0.3,0.6,0.6,0.9,0.9
	c-1.9,0.6-4.1,0.6-6.2,0.3L147,282.4 M153.5,262.7c0.6,0.3,1.2,0.6,1.9,0.6c0,0.6,0,0.9,0,1.6c-1.2-1.6-3.1-1.6-4.7-0.6l-0.3-1.2
	l2.2-0.6C152.9,262.7,153.2,262.7,153.5,262.7 M143.2,264.9c0.3,1.2,0.3,2.5,0.9,3.4C143.5,267.4,143.2,266.5,143.2,264.9
	 M163.2,274c-0.3-0.6-0.6-1.2-0.9-1.9c0.3-0.6,0.6-1.2,0.6-1.6C163.5,271.8,163.5,272.7,163.2,274 M173.2,252.1
	c-0.6-0.3-0.9-0.6-1.6-0.9c-1.9-2.2-3.7-4.4-6.2-5.9c-10-7.2-25.6-8.1-32.7,3.4c-0.3,0.6-0.6,1.2-0.9,1.9c-4.7,4.1-8.1,10-9,16.2
	c-1.6,0.3-2.5,1.9-2.5,3.4c-0.3,7.2,3.4,13.1,9,16.8c5.6,5,14,7.2,22.1,7.2c12.2,0.3,20.3-6.2,24-15V279
	C181.6,270.5,182.5,258.7,173.2,252.1 M166.3,150.2c0.9,1.2,1.6,2.5,2.2,3.7c-1.9-1.6-3.7-2.8-5.9-3.4c-0.3-0.9-1.2-1.9-2.5-2.2
	h-0.3c-0.3-0.3-0.6-0.6-0.9-1.2C161.3,147.7,164.1,148.6,166.3,150.2 M147,176.4c1.6,0,3.1-0.3,4.7-0.9c0.3,0.3,0.6,0.6,0.9,0.9
	c-1.9,0.6-4.1,0.6-6.2,0.3L147,176.4 M153.5,156.7c0.6,0.3,1.2,0.6,1.9,0.6c0,0.6,0,0.9,0,1.6c-1.2-1.6-3.1-1.6-4.7-0.6l-0.3-1.2
	l2.2-0.6C152.9,156.4,153.2,156.4,153.5,156.7 M143.2,158.6c0,0.3,0,0.9,0.3,1.2c0.3,0.6,0.3,1.2,0.6,2.2
	C143.5,161.4,143.2,160.1,143.2,158.6 M163.2,167.6l-0.9-1.9c0.3-0.6,0.6-1.2,0.6-1.6C163.5,165.4,163.5,166.7,163.2,167.6
	 M173.2,146.1c-0.6-0.3-0.9-0.6-1.6-0.9c-1.9-2.2-3.7-4.4-6.2-5.9c-10-7.2-25.6-8.1-32.7,3.4c-0.3,0.6-0.6,1.2-0.9,1.9
	c-4.7,4.1-8.1,10-9,16.2c-1.6,0.3-2.5,1.9-2.5,3.4c-0.3,7.2,3.4,13.1,9,16.8c5.6,5,14,7.2,22.1,7.2c12.2,0.3,20.3-6.2,24-15v-0.3
	C181.6,164.2,182.5,152.6,173.2,146.1 M399.6,256.2c0.9,1.2,1.6,2.5,2.2,3.7c-1.9-1.6-3.7-2.8-5.9-3.4c-0.3-0.9-1.2-1.9-2.5-2.2
	h-0.3c-0.3-0.3-0.6-0.6-0.9-1.2C394.9,254,397.4,255,399.6,256.2 M380.6,282.4c1.6,0,3.1-0.3,4.7-0.9c0.3,0.3,0.6,0.6,0.9,0.9
	c-1.9,0.6-4.1,0.6-6.2,0.3L380.6,282.4 M386.8,262.7c0.6,0.3,1.2,0.6,1.9,0.6c0,0.6,0,0.9,0,1.6c-1.2-1.6-3.1-1.6-4.7-0.6l-0.3-1.2
	l2.2-0.6C386.5,262.7,386.5,262.7,386.8,262.7 M376.8,264.9c0.3,1.2,0.3,2.5,0.9,3.4C376.8,267.4,376.5,266.5,376.8,264.9
	 M396.5,274c-0.3-0.6-0.6-1.2-0.9-1.9c0.3-0.6,0.6-1.2,0.9-1.6C396.8,271.8,396.8,272.7,396.5,274 M406.8,252.1
	c-0.6-0.3-0.9-0.6-1.6-0.9c-1.9-2.2-3.7-4.4-6.2-5.9c-10-7.2-25.6-8.1-32.7,3.4c-0.3,0.6-0.6,1.2-0.9,1.9c-4.7,4.1-8.1,10-9,16.2
	c-1.6,0.3-2.5,1.9-2.5,3.4c-0.3,7.2,3.4,13.1,9,16.8c5.6,5,14,7.2,22.1,7.2c12.2,0.3,20.3-6.2,24-15V279
	C415.2,270.5,415.8,258.7,406.8,252.1 M399.6,150.2c0.9,1.2,1.6,2.5,2.2,3.7c-1.9-1.6-3.7-2.8-5.9-3.4c-0.3-0.9-1.2-1.9-2.5-2.2
	h-0.3c-0.3-0.3-0.6-0.6-0.9-1.2C394.9,147.7,397.4,148.6,399.6,150.2 M380.6,176.4c1.6,0,3.1-0.3,4.7-0.9c0.3,0.3,0.6,0.6,0.9,0.9
	c-1.9,0.6-4.1,0.6-6.2,0.3L380.6,176.4 M386.8,156.7c0.6,0.3,1.2,0.6,1.9,0.6c0,0.6,0,0.9,0,1.6c-1.2-1.6-3.1-1.6-4.7-0.6l-0.3-1.2
	l2.2-0.6C386.5,156.4,386.5,156.4,386.8,156.7 M376.8,158.6c0.3,1.2,0.6,2.2,0.9,3.4C376.8,161.4,376.5,160.1,376.8,158.6
	 M396.5,167.6l-0.9-1.9c0.3-0.6,0.6-1.2,0.9-1.6C396.8,165.4,396.8,166.7,396.5,167.6 M406.8,146.1c-0.6-0.3-0.9-0.6-1.6-0.9
	c-1.9-2.2-3.7-4.4-6.2-5.9c-10-7.2-25.6-8.1-32.7,3.4c-0.3,0.6-0.6,1.2-0.9,1.9c-4.7,4.1-8.1,10-9,16.2c-1.6,0.3-2.5,1.9-2.5,3.4
	c-0.3,7.2,3.4,13.1,9,16.8c5.6,5,14,7.2,22.1,7.2c12.2,0.3,20.3-6.2,24-15v-0.3C415.2,164.2,415.8,152.6,406.8,146.1"/>
<path class="st2" d="M156,352.3c-15.6,0-28.4,12.8-28.4,28.7v115.4c0,15.9,12.8,28.7,28.4,28.7s28.4-12.8,28.4-28.7V381
	C184.4,365.4,171.6,352.3,156,352.3 M382.8,352.3c-15.6,0-28.4,12.8-28.4,28.7v115.4c0,15.9,12.8,28.7,28.4,28.7
	c15.6,0,28.4-12.8,28.4-28.7V381C411.1,365.4,398.4,352.3,382.8,352.3 M269.5,237.2c-15.6,0-28.4,12.8-28.4,28.7v230.8
	c0,15.9,12.8,28.7,28.4,28.7s28.4-12.8,28.4-28.7V265.9C297.9,250,285.1,237.2,269.5,237.2 M496.3,237.2
	c-15.6,0-28.4,12.8-28.4,28.7v230.8c0,15.9,12.8,28.7,28.4,28.7c15.6,0,28.4-12.8,28.4-28.7V265.9
	C524.7,250,511.9,237.2,496.3,237.2"/>
<path class="st1" d="M514.1,173.2c-1.6,2.5-3.7,4.4-5.9,5.6c1.2-2.2,2.8-4.7,4.1-7.8c0.3-0.6,0.6-1.2,0.9-1.9
	c0.9-0.9,1.2-1.9,0.9-3.1l0,0c1.9-1.2,3.1-3.7,3.4-6.2l0.3-0.3C518.1,164.2,516.9,169.2,514.1,173.2 M477,163.9c0-1.2,0-2.5,0-3.7
	c1.2,4.1,2.8,8.1,4.4,11.9c0.9,2.5,2.2,5.3,3.7,7.5c-0.9-0.6-1.6-1.2-2.2-1.9C479.1,174.2,477.3,168.9,477,163.9 M496.3,158.3
	c0-2.5,0-5.3,0-7.8c0.3,0,0.6,0.3,0.9,0.6l0.6,0.3C498.5,153.6,498.5,157,496.3,158.3 M521.9,147c0-1.6-0.9-3.4-2.2-4.4
	c-2.5-4.1-5.6-7.5-9.7-10c-5.3-3.4-11.5-5.3-15.3-0.6c-1.6,0-2.8-0.3-4.4-0.3c-0.9,0-1.6,0-2.5,0.3c-4.4-1.9-9.4-1.9-11.5,4.1
	c-0.9,2.2-1.2,4.7-1.2,7.2c-0.9,0.6-1.6,1.6-2.2,2.2c-4.4,6.2-3.7,17.5-1.9,24.3c2.8,11.9,15.6,21.2,26.8,17.8
	c0.9,0,1.9-0.6,2.5-0.9c5.9,1.2,12.2-0.9,17.5-7.2C525.6,170.1,526.2,157.6,521.9,147 M287.3,173.2c-1.6,2.5-3.7,4.4-5.9,5.6
	c1.6-2.2,2.8-4.7,4.1-7.8c0.3-0.6,0.6-1.2,0.6-1.9c0.9-0.9,1.2-1.9,0.9-3.1l0,0c1.9-1.2,3.1-3.7,3.4-6.2l0.3-0.3
	C291.4,164.2,290.1,169.2,287.3,173.2 M250.2,163.9c0-1.2,0-2.5,0-3.7c1.2,4.1,2.8,8.1,4.4,11.9c0.9,2.5,2.2,5.3,3.7,7.5
	c-0.9-0.6-1.6-1.2-2.2-1.9C252.4,174.2,250.5,168.9,250.2,163.9 M269.5,158.3c-0.3-2.5,0-5.3,0-7.8c0.3,0,0.6,0.3,0.9,0.6
	c0.3,0,0.3,0.3,0.6,0.3C271.7,153.6,271.7,157,269.5,158.3 M295.1,147c0-1.6-0.9-3.4-2.2-4.4c-2.5-4.1-5.6-7.5-9.7-10
	c-5.3-3.4-11.5-5.3-15.3-0.6c-1.6,0-2.8-0.3-4.4-0.3c-0.9,0-1.6,0-2.5,0.3c-4.7-1.9-9.4-1.9-11.5,4.1c-0.9,2.2-1.2,4.7-1.2,7.2
	c-0.9,0.6-1.6,1.6-2.2,2.2c-4.4,6.2-3.7,17.5-1.9,24.3c2.8,11.9,15.6,21.2,26.8,17.8c0.9,0,1.9-0.6,2.5-0.9
	c5.9,1.2,12.2-0.9,17.5-7.2C298.9,170.1,299.5,157.6,295.1,147"/>
</svg>
