<svg xmlns="http://www.w3.org/2000/svg" viewBox="0 0 752.91 167.89"><defs><style>.a{fill:#7400ff;}</style></defs><title>rapids2</title><path class="a" d="M25.06,176.15a4.92,4.92,0,0,1-1.51-3.65V32.65A5.43,5.43,0,0,1,25,28.77a4.85,4.85,0,0,1,3.77-1.51H84.35q26.45,0,41.35,12.26t15,34.8q0,15.69-7.56,26.31A41.85,41.85,0,0,1,112,116l31.15,54.78a5.18,5.18,0,0,1,.64,2.36,4.21,4.21,0,0,1-1.28,3.23,4.49,4.49,0,0,1-3.12,1.29H119.58a8.18,8.18,0,0,1-5.36-1.61,15.27,15.27,0,0,1-3.44-4.19l-27.5-51H53.77v51.56a5,5,0,0,1-1.51,3.65,5.24,5.24,0,0,1-3.87,1.51H28.7A5,5,0,0,1,25.06,176.15Zm58.65-79.7q12.89,0,19.32-5.66t6.46-16.64q0-11-6.46-16.87t-19.32-6H53.77V96.45Z" transform="translate(-23.54 -20.56)"/><path class="a" d="M160.66,176.37a4.37,4.37,0,0,1-1.28-3.23l.41-1.89,51.57-138.6a7.77,7.77,0,0,1,7.75-5.39h23.55a7.76,7.76,0,0,1,7.73,5.39L302,171.22l.44,1.88a4.26,4.26,0,0,1-1.4,3.23,4.6,4.6,0,0,1-3.12,1.29h-19a6.22,6.22,0,0,1-6.23-4.08l-9.9-26H199.22l-10,26a6.22,6.22,0,0,1-6.23,4.08H163.89A4.39,4.39,0,0,1,160.66,176.37Zm46-53.72h48.54l-24.27-66.2Z" transform="translate(-23.54 -20.56)"/><path class="a" d="M319,176.15a5,5,0,0,1-1.51-3.65V32.65a5.52,5.52,0,0,1,1.4-3.88,4.92,4.92,0,0,1,3.78-1.51h57.55q26,0,40.82,12.26t14.83,35.66q0,23.19-14.83,35.12t-40.82,11.92H348.59V172.5a4.87,4.87,0,0,1-1.49,3.78,5.49,5.49,0,0,1-3.78,1.4H322.6A5,5,0,0,1,319,176.15Zm60.15-78q12.47,0,19-5.91T404.67,75q0-11.16-6.34-17.4T379.1,51.33H348.17V98.17Z" transform="translate(-23.54 -20.56)"/><path class="a" d="M682.11,174a49,49,0,0,1-20.77-15.26,36.13,36.13,0,0,1-7.56-20.63,4.44,4.44,0,0,1,1.29-3.11,4.19,4.19,0,0,1,3.23-1.4h19.55a6.45,6.45,0,0,1,3.77,1.07,11.45,11.45,0,0,1,2.86,3,22,22,0,0,0,9.78,12.26q7.56,4.92,21,4.93,15,0,22.66-5.05A15.77,15.77,0,0,0,745.43,136a13.11,13.11,0,0,0-3.78-9.65A32.49,32.49,0,0,0,730,119.54q-7.85-2.9-23.31-7-25.35-6-37.17-15.91T657.69,68.33a37.82,37.82,0,0,1,6.88-22.25,45.67,45.67,0,0,1,19.66-15.36A73.7,73.7,0,0,1,714,25.05a70.72,70.72,0,0,1,30.83,6.24A50.85,50.85,0,0,1,764.51,47a34.39,34.39,0,0,1,7.19,18.59,4.56,4.56,0,0,1-1.28,3.12,4.3,4.3,0,0,1-3.23,1.39h-20.4a6.43,6.43,0,0,1-6.46-3.87c-.72-4.59-3.51-8.4-8.37-11.5a33.17,33.17,0,0,0-18.06-4.61q-11.8,0-18.56,4.51a14.74,14.74,0,0,0-6.78,13.09A14,14,0,0,0,692,77.39a28.07,28.07,0,0,0,10.75,6.79A194.82,194.82,0,0,0,724,90.71a149.11,149.11,0,0,1,30.39,9.67,39.84,39.84,0,0,1,16.66,13.55,37.29,37.29,0,0,1,5.37,20.77,39.27,39.27,0,0,1-7.56,24.18,47.24,47.24,0,0,1-21.48,15.57,88.48,88.48,0,0,1-32.11,5.38A85.1,85.1,0,0,1,682.11,174Z" transform="translate(-23.54 -20.56)"/><path class="a" d="M459.24,172.5v15.94l30.87-30.86V51.44L459.28,20.56V32.42Z" transform="translate(-23.54 -20.56)"/><path class="a" d="M636.38,85.71q-1.3-58.42-64.67-58.45H519.29a4.92,4.92,0,0,0-3.78,1.51,5.47,5.47,0,0,0-1.39,3.88v42l30.22,29.86V52.2h26.2q18.06,0,26.44,8.25t8.82,25.9c.29,8.31.42,13.6.42,15.9s-.13,7.56-.42,16.11q-.45,18.48-8.38,26.45t-25.71,8H544.43V104.5l-30.22,29.86V172.5a5.16,5.16,0,0,0,5.16,5.16h53.49q32.11,0,47.37-14.28T636.46,119q.42-12.47.43-16.55C636.82,99.59,636.67,94,636.38,85.71Z" transform="translate(-23.54 -20.56)"/></svg>