<svg xmlns="http://www.w3.org/2000/svg" viewBox="0 0 486.01 262.11"><defs><style>.a{fill:#f89939;}.b{fill:#3499cd;}.c{fill:#010101;}.d{isolation:isolate;font-size:40.45px;fill:#fff;font-family:Helvetica, Helvetica;}</style></defs><title>sklearn2</title><path class="a" d="M379.78,241.67C439.13,182.32,449,96,401.81,48.77s-133.54-37.32-192.89,22-42.19,172.75-22,192.9c16.28,16.29,133.54,37.32,192.89-22Z" transform="translate(-6.99 -18.95)"/><path class="b" d="M136.23,155.91C101.8,121.47,51.68,115.74,24.3,143.12S2.65,220.62,37.09,255.05,137.32,279.53,149,267.83C158.47,258.39,170.67,190.35,136.23,155.91Z" transform="translate(-6.99 -18.95)"/><path class="c" d="M255,227.12a95.63,95.63,0,0,1-16,12.39,26.14,26.14,0,0,1-13.12,4,14,14,0,0,1-11.58-5.57q-4.4-5.58-4.4-15,0-14.09,6.11-33.82a215,215,0,0,1,14.84-36.39l17.05-6.31a4.19,4.19,0,0,1,1.21-.27c1.29,0,2.36,1,3.18,2.85a19.61,19.61,0,0,1,1.25,7.69,59.36,59.36,0,0,1-6.32,26.52q-6.31,12.83-19.73,27.38-.54,7-.54,9.6c0,3.9.72,7,2.15,9.26a6.48,6.48,0,0,0,5.7,3.43,14.5,14.5,0,0,0,7.73-2.61q4.08-2.62,12.48-10.88v7.71Zm-25.71-26.24a81.71,81.71,0,0,0,13.83-21.24q5.29-11.76,5.3-20.24a9.18,9.18,0,0,0-.73-4c-.5-1-1.13-1.52-1.89-1.52q-2.46,0-7.21,12.37t-9.3,34.62Z" transform="translate(-6.99 -18.95)"/><path class="c" d="M305.25,227.12q-8.52,8.4-15.3,12.39a28.89,28.89,0,0,1-15,4q-9.14,0-14.74-5.84t-5.6-15.38q0-14.22,9.87-25.74T286.39,185q6.24,0,10,3.22a10.6,10.6,0,0,1,3.76,8.46q0,13.91-29.53,22.55,2.69,13.1,14,13.09A16.4,16.4,0,0,0,293.1,230q4-2.4,12.15-10.58v7.71Zm-35.17-12.41q17.18-4.85,17.18-17.86,0-6.43-4.7-6.44-4.43,0-8.45,6.75t-4,17.55Z" transform="translate(-6.99 -18.95)"/><path class="c" d="M376.94,227.12q-10.74,10.22-15.37,13.3a16.08,16.08,0,0,1-8.86,3.09q-10.6,0-10-18.73Q336,234.38,330.32,239t-11.71,4.56q-5.91,0-10-5.54a22.1,22.1,0,0,1-4.12-13.59,36.49,36.49,0,0,1,5.53-19.2,45.51,45.51,0,0,1,14.2-14.77q8.65-5.64,15.3-5.64,8.4,0,11.75,7.72L365,184.91h3.76l-5.92,19.66q-4.56,14.85-4.57,20.35c0,3.84,1.36,5.77,4.09,5.77,1.74,0,3.67-.93,5.77-2.79s5.05-4.69,8.86-8.49v7.71Zm-49.14,3.7q6.72,0,12.66-11.44t5.94-21.12a9.27,9.27,0,0,0-1.67-5.87,5.47,5.47,0,0,0-4.5-2.11q-6.72,0-12.72,11.41t-6,21a9.18,9.18,0,0,0,1.78,5.88,5.51,5.51,0,0,0,4.52,2.25Z" transform="translate(-6.99 -18.95)"/><path class="c" d="M427.09,227.12q-16.86,16.51-26,16.52a8.61,8.61,0,0,1-6.92-3.45,13.18,13.18,0,0,1-2.82-8.57q0-9.45,10.14-25.37a37,37,0,0,1-10.87,3.56q-4.36,8.06-13.7,17.31H375.4v-6a88.39,88.39,0,0,0,9.47-11.68c-3.86-1.71-5.78-4.23-5.78-7.59a21.55,21.55,0,0,1,3.53-11q3.53-5.88,9.7-5.87c3.49,0,5.23,1.78,5.23,5.36q0,4.23-3,12.09,11.13-1.22,19.47-17.05l6.1-.27-6.24,17.18q-3.89,10.88-5,14.8a25.41,25.41,0,0,0-1.15,6.95,7.13,7.13,0,0,0,1.31,4.5,4.25,4.25,0,0,0,3.53,1.68,7.7,7.7,0,0,0,4.63-1.64q2.22-1.66,9.94-9.1v7.71Z" transform="translate(-6.99 -18.95)"/><path class="c" d="M493,227.12q-15.51,16.4-26.59,16.39a9.14,9.14,0,0,1-7.25-3.16,12.37,12.37,0,0,1-2.75-8.45q0-7.18,5.91-22,3.15-7.92,3.16-10.07c0-1.43-.57-2.15-1.68-2.15a5.21,5.21,0,0,0-2.49.94,29.52,29.52,0,0,0-3.29,2.62q-1.68,1.54-3.76,3.75-1.81,1.89-3.89,4.3l-3.76,4.37a13.75,13.75,0,0,0-3.09,6.37,101,101,0,0,0-1.34,10.48c-.14,2.37-.2,5.56-.2,9.6l-14.84,3.48q-.73-9.06-.74-13.49a80.85,80.85,0,0,1,2.52-20.47A132.46,132.46,0,0,1,437,187.93l16.37-3.16q-5.16,13.9-6.77,21.88,11-12.27,17.47-17c4.3-3.16,8.14-4.73,11.49-4.73a7.29,7.29,0,0,1,5.7,2.58,9.41,9.41,0,0,1,2.28,6.46q0,6.45-5.77,21.22-4,10.13-4,13.16,0,4,3.3,4,4.9,0,15.89-13Z" transform="translate(-6.99 -18.95)"/><text class="d" transform="translate(268.72 143.61)">scikit</text></svg>