<svg xmlns="http://www.w3.org/2000/svg" viewBox="0 0 627.04 132.45"><defs><style>.a{fill:#fdfdfd;}.b{fill:#cd270a;}.c{fill:#3a3a3a;}</style></defs><title>sqlalchemy</title><path class="a" d="M15.23,135.32V2.87h627V135.32ZM229.57,85.16c.27,5.6.55,5.77,6,5.83,5.86.05,11.73.14,17.58.51,3,.19,3.74-1.24,4.17-3.68.49-2.71-1.19-2.88-3.11-3.07-1.51-.14-3-.49-4.5-.74-2.17-.36-3.16-1.41-2.19-3.66,1.4-3.23,2.87-6.44,4.12-9.73.81-2.12,2.12-2.83,4.35-2.78,5.35.14,10.77.52,16.06-.08,6.55-.74,10,1.59,12.49,7.78,4.06,10.08,4,7.81-4.9,9.31-2.26.39-3.06,1.51-2.39,3.27.45,1.2,1.92,2.85,2.94,2.86,18.24.1,36.47-.08,54.71-.06,3.6,0,4.41-2,4.78-5.22-6.35-1.1-7-5.45-6.92-10.81.25-15.69.18-31.39.13-47.08,0-7.37-1.07-15,6.66-19.74.53-.32.4-1.72.57-2.62-1-.09-2.16-.57-2.89-.19C330.58,8.69,324,12.2,317.47,15.92a4.44,4.44,0,0,0-1.55,3.53c.45,6.58,1.63,13.15,1.69,19.72.12,13.51-.2,27-.64,40.53-.06,1.78-1.86,4.94-2.89,5-2.37,0-4.81-1.36-7.11-2.41-.69-.31-1.11-1.37-1.51-2.15q-14.64-28.87-29.2-57.78c-1.05-2.1-1.93-3.56-4.69-3.41s-4.71.3-6.18,3.51c-8.58,18.67-17.59,37.15-26.31,55.75-2,4.21-4.87,6.72-9.54,7.08-.09-2.58-.34-5.17-.23-7.74.14-3.17.76-6.32.78-9.48,0-.8-1.35-2-2.31-2.28-.53-.17-1.88.91-2.24,1.7a57.64,57.64,0,0,0-2,6.11c-1.44,4.51-4.25,7.59-9.17,7.87-5.33.31-10.69.49-16,.29a4.81,4.81,0,0,1-4.79-5q-.1-22.18.09-44.38c0-3.33,1.54-5.82,5.39-6.2a36,36,0,0,0,5.27-1.33c-.93-2.56.5-5.85-4.11-5.73-9.67.25-19.35.06-29,0-4.52,0-5.35,1-4.76,5.75,1.81.6,3.63,1.17,5.43,1.81a5.85,5.85,0,0,1,4.26,5.74c.07,15.67,0,31.34,0,47,0,2.63-1.37,4.25-4.07,4.73-2.08.37-4.13.93-6.13,1.4.16,5.64.41,5.8,5.6,5.75Q194,91,216.58,91c2.27,0,4.75,0,6.77.8,3.13,1.3,3.75-.54,4.56-2.66C228.42,87.76,229,86.47,229.57,85.16ZM510.48,49.8c0-3,.11-5.43,0-7.88-.18-3.36-2.49-4.9-5.48-3.5a84.8,84.8,0,0,0-10,5.42c-.94.6-1.88,2.71-1.52,3.62C497.18,57,496.31,67,496,76.89c-.12,3.71-.46,7.71-5.12,9.24-.57.19-1,2-.85,2.88a2.8,2.8,0,0,0,2,1.86c7.39.11,14.8.17,22.18-.14,1.11,0,2.41-2,3.05-3.28.2-.41-1.31-2-2.31-2.58-2.41-1.39-3.87-3.11-3.75-6.07.17-4.34.23-8.68.13-13-.14-5.94,2.43-10.48,6.88-14.13,2.87-2.34,5.85-2.19,7.88.86a13.29,13.29,0,0,1,2.25,6.3c.32,6,.16,12,.18,18,0,3.8-1.08,6.9-4.73,8.91-.92.51-1.41,2.46-1.37,3.72,0,.54,1.89,1.44,2.93,1.46,6.38.12,12.76-.1,19.13.06,3.71.09,4.81-1.83,5.1-5.44-7.09-1-7.17-6.17-6.84-11.53.18-2.77.78-5.55.69-8.31-.19-5.66,2.15-10,6.26-13.63,3.57-3.16,8-2.39,10,2A13.44,13.44,0,0,1,561,59.49c0,5.86-.16,11.73-.66,17.57-.32,3.67-.45,7.75-5.24,9.13-.53.15-1.12,2.13-.78,2.82a3.8,3.8,0,0,0,2.75,1.87c6.63.14,13.28.21,19.89-.15,1.39-.08,2.88-1.91,3.85-3.28.22-.31-1.32-2.52-2.41-3-2.79-1.19-3.8-3.06-3.63-6,.36-5.82-.08-11.79,1-17.46,1.75-9-2-15.17-8.34-20.63-4-3.41-6.62-3.88-10.94-.88A121.43,121.43,0,0,0,544.64,49c-2.12,1.9-3,1.45-4.21-.76a33.24,33.24,0,0,0-4.63-6.85c-4.48-4.74-6.64-5-12.22-1.28C519.31,43,515.31,46.21,510.48,49.8Zm-434.7-8c2.94-7.41,6-15,8.9-22.71.27-.72-1-2-1.5-3a23,23,0,0,0-2.8,1.67c-.45.36-.61,1.09-.89,1.65-2.58,5.21-2.61,5.22-8,2.9-.93-.4-1.92-.7-2.83-1.15a25.9,25.9,0,0,0-22.8-.67A67.81,67.81,0,0,0,24.21,34.6c-8.64,8.56-9,17.65-1.54,27.26a94.78,94.78,0,0,0,6.51,7.5c1.63,1.69,1.74,3,.31,4.94-1.94,2.65-3.41,5.63-5.19,8.41-1.44,2.23-.78,3.62,1.62,4.17,8,1.85,16,4,24.14,5.23a27.9,27.9,0,0,0,12-.84c8.42-2.55,14.17-8.78,19-15.88a19.61,19.61,0,0,0,3-16.41c-2-8.09-7.86-12.31-15.15-15.4C62.71,41,59.61,45.3,55.85,48.51,51.42,52.29,47,56,41.88,60.35c-2.77-4.25-5.69-7.83-7.62-11.89-3-6.27-1.07-11,5-14.4a19.71,19.71,0,0,1,17-1.34C62.5,35.05,68.41,38.34,75.78,41.82Zm57.84-24.19c-4,.75-8,1.22-11.92,2.29-8.35,2.3-15.54,6.9-22.06,12.45-13.33,11.32-15.38,26.35-5.15,40.3A46.88,46.88,0,0,0,118.07,89.5c3.07,1,6.82.62,10.13.07a55.2,55.2,0,0,0,10.55-3.26c16.62-6.37,28.57-29.79,24-47.07C160.29,29.76,149.23,17.65,133.62,17.63Zm463.85,83.91-.31-1.07c2-1.71,4.11-3.34,6-5.15C611.54,87.47,620.26,80,628,71.51c3.48-3.8,5.66-9.25,7.12-14.33,2.09-7.34-6.21-15.56-12.25-18.35-3.68-1.7-12.69,2.49-13.29,6.46a5.78,5.78,0,0,0,1.7,4.14c1.29,1.31,3.15,2.06,4.79,3,4.5,2.6,6.24,6.79,4.68,11.38S616.53,72.4,614,76.45c-1.19,1.91-2.62.79-3.42-.84-4.1-8.39-8.33-16.72-12.23-25.2-1.92-4.19-.93-6.63,2.86-9.33a8.68,8.68,0,0,0,2.07-1.66c.45-.6.93-1.82.66-2.16-.53-.63-1.83-1.37-2.39-1.13-7.69,3.42-15.31,7-23.21,10.66,6.74,13,13.09,25.06,19.31,37.23,3.11,6.07,3.7,5-1.83,9.5-2,1.61-3.69,3.61-5.82,5-8,5.06-11.09,12.91-12.71,21.63-.21,1.11.5,2.38.78,3.58,1-.77,2.37-1.34,2.87-2.35a9.42,9.42,0,0,1,6.81-5.35c11.89-3,23.93-2.07,37.07-2.15-1.46,3.44-2.83,6.19-3.79,9.08-.43,1.3-.07,2.87-.07,4.32l1.31.24a60,60,0,0,0,12.12-20.27c1-2.67-.38-5.54-4-5.59-9.54-.13-19.09-.07-28.64-.08Zm-192-51.47c.32-3.7.76-6.88.83-10.07.15-6.76.11-13.52.14-20.27,0-3.45.93-6.48,3.76-8.74a11.84,11.84,0,0,0,2.69-2.69,9.25,9.25,0,0,0,.71-3c-1,0-2.13-.42-2.91,0-4.46,2.14-8.93,4.31-13.23,6.76-8.44,4.81-7.56,4.85-7.13,14.29.79,17.3.54,34.64.57,52,0,3.23-.82,6.28-4.59,7.58-.7.24-1.18,2.06-1.15,3.13A2.65,2.65,0,0,0,387,90.9c7.52.09,15,.13,22.55-.21,1.06,0,2.27-2.06,2.88-3.41.18-.38-1.37-1.85-2.36-2.41-2.4-1.36-3.92-3-3.81-6,.18-4.45.08-8.92.16-13.38.11-6,2.86-10.64,7.53-14.21,2.32-1.76,5-1.85,6.89.32a12.71,12.71,0,0,1,3.13,6.6,82.65,82.65,0,0,1,0,16c-.52,4.49.26,10.06-5.89,12.11-.52.18-.86,2.06-.62,3A2.87,2.87,0,0,0,419.61,91c7.26.07,14.53.11,21.78-.23,1.13-.06,2.52-1.93,3.08-3.27.24-.56-1.32-1.93-2.14-2.87-1.24-1.42-3.58-2.73-3.65-4.18a118.43,118.43,0,0,1,.49-16c.8-9,.41-17.4-7.91-23.55-5.14-3.82-6.91-4.55-12.17-1C414.64,42.92,410.45,46.33,405.49,50.07ZM471.9,36.61a8.4,8.4,0,0,0-3,1c-5.22,3.76-10.64,7.35-15.41,11.64-10.87,9.77-8.95,29,1.5,38.2,3.63,3.19,7.64,4.9,12.67,4.35,7.91-.86,13.16-6,18.57-10.93,1.53-1.4,3.13-2.79,1.16-5.09s-3.29-.42-4.77.63c-7.74,5.54-16,3-19.68-5.87-1.25-3-1.13-5,2.4-6.51,6.72-2.8,13.26-6.05,19.91-9,2.64-1.18,4-3.11,3.47-5.92C487.82,44.74,477.39,36.7,471.9,36.61ZM357.25,59.44c.1-2.29.12-4.59.35-6.87a9.28,9.28,0,0,1,1-2.43c1.29-3.06,3.57-3.73,5.93-1.64a36.14,36.14,0,0,1,6,7.18c1.48,2.24,2.77,3.4,5.43,1.81A44.71,44.71,0,0,1,381.47,55c3.89-1.65,5.1-5.54,2.17-8.49A84.16,84.16,0,0,0,373.42,38a7.31,7.31,0,0,0-8.64-.28,145.36,145.36,0,0,0-13.24,9.55c-14,11.73-10.83,32.66,1.07,41.25,2.88,2.08,7,3.78,10.39,3.56,8.74-.56,14.87-6.44,20.46-12.59.65-.71.21-2.75-.28-3.95-.15-.38-2.18-.26-3.21.07a14,14,0,0,0-2.9,1.81c-5.45,3.48-10.15,2.83-14.69-1.79S357.16,65.4,357.25,59.44ZM107,106.42a25,25,0,0,0,3-2c4.29-3.8,9.08-4.21,14.26-2.27,3.34,1.25,6.74,2.33,10,3.78,9.63,4.33,19.18,8.86,28.8,13.22,12.4,5.62,22.8.9,26.38-12.06.7-2.54.7-5.26,1-7.9L189,98.71a41.61,41.61,0,0,0-2.69,4.21c-5.42,11.07-5.4,11.7-18,6.9-13-5-25.89-10.45-38.9-15.48C119.88,90.64,110,95.72,107,106.42Z" transform="translate(-15.23 -2.87)"/><path class="b" d="M229.54,85.25c4.67-.36,7.56-2.87,9.54-7.08,8.72-18.6,17.73-37.08,26.31-55.75,1.47-3.21,3.38-3.36,6.18-3.51s3.64,1.31,4.69,3.41q14.5,28.93,29.2,57.78c.4.78.82,1.84,1.51,2.15,2.3,1,4.74,2.45,7.11,2.41,1,0,2.83-3.18,2.89-5,.44-13.5.76-27,.64-40.53-.06-6.57-1.24-13.14-1.69-19.72a4.44,4.44,0,0,1,1.55-3.53C324,12.2,330.58,8.69,337.23,5.26c.73-.38,1.91.1,2.89.19-.17.9,0,2.3-.57,2.62-7.73,4.77-6.68,12.37-6.66,19.74.05,15.69.12,31.39-.13,47.08-.08,5.36.57,9.71,6.92,10.81-.37,3.2-1.18,5.23-4.78,5.22-18.24,0-36.47.16-54.71.06-1,0-2.49-1.66-2.94-2.86-.67-1.76.13-2.88,2.39-3.27,8.86-1.5,9,.77,4.9-9.31-2.48-6.19-5.94-8.52-12.49-7.78-5.29.6-10.71.22-16.06.08-2.23,0-3.54.66-4.35,2.78-1.25,3.29-2.72,6.5-4.12,9.73-1,2.25,0,3.3,2.19,3.66,1.5.25,3,.6,4.5.74,1.92.19,3.6.36,3.11,3.07-.43,2.44-1.22,3.87-4.17,3.68-5.85-.37-11.72-.46-17.58-.51-5.45-.06-5.73-.23-6-5.83Zm36.57-45.69c-3.27,7.3-6.12,13.67-9.31,20.78h20C273.19,53.31,269.87,46.86,266.11,39.56Z" transform="translate(-15.23 -2.87)"/><path class="b" d="M510.48,49.8c4.83-3.59,8.83-6.84,13.1-9.69,5.58-3.7,7.74-3.46,12.22,1.28a33.24,33.24,0,0,1,4.63,6.85c1.23,2.21,2.09,2.66,4.21.76a121.43,121.43,0,0,1,11.87-9.48c4.32-3,7-2.53,10.94.88,6.33,5.46,10.09,11.65,8.34,20.63-1.1,5.67-.66,11.64-1,17.46-.17,2.91.84,4.78,3.63,6,1.09.47,2.63,2.68,2.41,3-1,1.37-2.46,3.2-3.85,3.28-6.61.36-13.26.29-19.89.15A3.8,3.8,0,0,1,554.32,89c-.34-.69.25-2.67.78-2.82,4.79-1.38,4.92-5.46,5.24-9.13.5-5.84.63-11.71.66-17.57A13.44,13.44,0,0,0,559.63,54c-2-4.37-6.43-5.14-10-2-4.11,3.63-6.45,8-6.26,13.63.09,2.76-.51,5.54-.69,8.31-.33,5.36-.25,10.54,6.84,11.53-.29,3.61-1.39,5.53-5.1,5.44-6.37-.16-12.75.06-19.13-.06-1,0-2.91-.92-2.93-1.46,0-1.26.45-3.21,1.37-3.72,3.65-2,4.74-5.11,4.73-8.91,0-6,.14-12-.18-18a13.29,13.29,0,0,0-2.25-6.3c-2-3.05-5-3.2-7.88-.86-4.45,3.65-7,8.19-6.88,14.13.1,4.33,0,8.67-.13,13-.12,3,1.34,4.68,3.75,6.07,1,.58,2.51,2.17,2.31,2.58-.64,1.32-1.94,3.23-3.05,3.28-7.38.31-14.79.25-22.18.14A2.8,2.8,0,0,1,490,89c-.16-.92.28-2.69.85-2.88,4.66-1.53,5-5.53,5.12-9.24.32-9.89,1.19-19.85-2.56-29.43-.36-.91.58-3,1.52-3.62a84.8,84.8,0,0,1,10-5.42c3-1.4,5.3.14,5.48,3.5C510.59,44.37,510.48,46.84,510.48,49.8Z" transform="translate(-15.23 -2.87)"/><path class="c" d="M75.78,41.82c-7.37-3.48-13.28-6.77-19.55-9.1a19.71,19.71,0,0,0-17,1.34c-6.05,3.41-8,8.13-5,14.4,1.93,4.06,4.85,7.64,7.62,11.89,5.09-4.31,9.54-8.06,14-11.84,3.76-3.21,6.86-7.56,13.07-4.93C76.21,46.67,82,50.89,84.07,59a19.61,19.61,0,0,1-3,16.41c-4.81,7.1-10.56,13.33-19,15.88a27.9,27.9,0,0,1-12,.84C41.94,90.84,34,88.73,25.92,86.88c-2.4-.55-3.06-1.94-1.62-4.17,1.78-2.78,3.25-5.76,5.19-8.41,1.43-2,1.32-3.25-.31-4.94a94.78,94.78,0,0,1-6.51-7.5c-7.47-9.61-7.1-18.7,1.54-27.26a67.81,67.81,0,0,1,21.6-14.11,25.9,25.9,0,0,1,22.8.67c.91.45,1.9.75,2.83,1.15,5.44,2.32,5.47,2.31,8-2.9.28-.56.44-1.29.89-1.65a23,23,0,0,1,2.8-1.67c.54,1,1.77,2.3,1.5,3C81.82,26.8,78.72,34.41,75.78,41.82ZM38.28,72.64a36.08,36.08,0,0,0,26.56,6.48c1.8-.25,3.83-2.54,4.78-4.39,2.49-4.87,0-13.53-4.67-16.45-2.41-1.51-5.29-3.2-8.13-.94C50.76,62.19,44.84,67.21,38.28,72.64Z" transform="translate(-15.23 -2.87)"/><path class="c" d="M133.62,17.63c15.61,0,26.67,12.13,29.16,21.61,4.54,17.28-7.41,40.7-24,47.07a55.2,55.2,0,0,1-10.55,3.26c-3.31.55-7.06.93-10.13-.07A46.88,46.88,0,0,1,94.49,72.67c-10.23-14-8.18-29,5.15-40.3,6.52-5.55,13.71-10.15,22.06-12.45C125.59,18.85,129.64,18.38,133.62,17.63ZM124.68,30C108.31,29.13,97.85,43.49,105,58c5.25,10.58,14.58,17.09,25.87,20.58a4.35,4.35,0,0,0,2.59-.16c4.5-1.61,9-3.65,10.92-8.28s4.29-9.7,4.59-14.68c.69-11.37-2-21.7-16.39-24.28C130,30.7,127.33,30.38,124.68,30Z" transform="translate(-15.23 -2.87)"/><path class="b" d="M597.47,101.54h4.32c9.55,0,19.1-.05,28.64.08,3.58,0,4.92,2.92,4,5.59a60,60,0,0,1-12.12,20.27l-1.31-.24c0-1.45-.36-3,.07-4.32,1-2.89,2.33-5.64,3.79-9.08-13.14.08-25.18-.83-37.07,2.15a9.42,9.42,0,0,0-6.81,5.35c-.5,1-1.89,1.58-2.87,2.35-.28-1.2-1-2.47-.78-3.58,1.62-8.72,4.73-16.57,12.71-21.63,2.13-1.35,3.84-3.35,5.82-5,5.53-4.5,4.94-3.43,1.83-9.5-6.22-12.17-12.57-24.26-19.31-37.23,7.9-3.66,15.52-7.24,23.21-10.66.56-.24,1.86.5,2.39,1.13.27.34-.21,1.56-.66,2.16a8.68,8.68,0,0,1-2.07,1.66c-3.79,2.7-4.78,5.14-2.86,9.33,3.9,8.48,8.13,16.81,12.23,25.2.8,1.63,2.23,2.75,3.42.84,2.53-4,5.21-8.17,6.72-12.64S620.54,55,616,52.43c-1.64-.94-3.5-1.69-4.79-3a5.78,5.78,0,0,1-1.7-4.14c.6-4,9.61-8.16,13.29-6.46,6,2.79,14.34,11,12.25,18.35-1.46,5.08-3.64,10.53-7.12,14.33-7.71,8.44-16.43,16-24.78,23.81-1.92,1.81-4,3.44-6,5.15Z" transform="translate(-15.23 -2.87)"/><path class="b" d="M405.49,50.07c5-3.74,9.15-7.15,13.6-10.17,5.26-3.56,7-2.83,12.17,1,8.32,6.15,8.71,14.5,7.91,23.55a118.43,118.43,0,0,0-.49,16c.07,1.45,2.41,2.76,3.65,4.18.82.94,2.38,2.31,2.14,2.87-.56,1.34-2,3.21-3.08,3.27-7.25.34-14.52.3-21.78.23a2.87,2.87,0,0,1-2.16-1.66c-.24-.91.1-2.79.62-3,6.15-2,5.37-7.62,5.89-12.11a82.65,82.65,0,0,0,0-16,12.71,12.71,0,0,0-3.13-6.6c-1.85-2.17-4.57-2.08-6.89-.32-4.67,3.57-7.42,8.22-7.53,14.21-.08,4.46,0,8.93-.16,13.38-.11,3,1.41,4.66,3.81,6,1,.56,2.54,2,2.36,2.41-.61,1.35-1.82,3.36-2.88,3.41-7.51.34-15,.3-22.55.21A2.65,2.65,0,0,1,385.18,89c0-1.07.45-2.89,1.15-3.13,3.77-1.3,4.6-4.35,4.59-7.58,0-17.32.22-34.66-.57-52-.43-9.44-1.31-9.48,7.13-14.29,4.3-2.45,8.77-4.62,13.23-6.76.78-.38,1.93,0,2.91,0a9.25,9.25,0,0,1-.71,3A11.84,11.84,0,0,1,410.22,11c-2.83,2.26-3.75,5.29-3.76,8.74,0,6.75,0,13.51-.14,20.27C406.25,43.19,405.81,46.37,405.49,50.07Z" transform="translate(-15.23 -2.87)"/><path class="c" d="M229.54,85.25l0-.09c-.55,1.31-1.15,2.6-1.66,3.93-.81,2.12-1.43,4-4.56,2.66-2-.84-4.5-.81-6.77-.8q-22.56.08-45.13.33c-5.19,0-5.44-.11-5.6-5.75,2-.47,4.05-1,6.13-1.4,2.7-.48,4.06-2.1,4.07-4.73,0-15.67.07-31.34,0-47a5.85,5.85,0,0,0-4.26-5.74c-1.8-.64-3.62-1.21-5.43-1.81-.59-4.76.24-5.76,4.76-5.75,9.68,0,19.36.21,29,0,4.61-.12,3.18,3.17,4.11,5.73A36,36,0,0,1,199,26.11c-3.85.38-5.36,2.87-5.39,6.2q-.21,22.19-.09,44.38a4.81,4.81,0,0,0,4.79,5c5.33.2,10.69,0,16-.29,4.92-.28,7.73-3.36,9.17-7.87a57.64,57.64,0,0,1,2-6.11c.36-.79,1.71-1.87,2.24-1.7,1,.32,2.31,1.48,2.31,2.28,0,3.16-.64,6.31-.78,9.48C229.2,80.08,229.45,82.67,229.54,85.25Z" transform="translate(-15.23 -2.87)"/><path class="b" d="M471.9,36.61c5.49.09,15.92,8.13,16.79,12.47.56,2.81-.83,4.74-3.47,5.92-6.65,3-13.19,6.24-19.91,9-3.53,1.47-3.65,3.46-2.4,6.51,3.65,8.89,11.94,11.41,19.68,5.87,1.48-1,2.78-3,4.77-.63s.37,3.69-1.16,5.09c-5.41,5-10.66,10.07-18.57,10.93-5,.55-9-1.16-12.67-4.35-10.45-9.2-12.37-28.43-1.5-38.2,4.77-4.29,10.19-7.88,15.41-11.64A8.4,8.4,0,0,1,471.9,36.61ZM460.81,60.32l13.81-6.86c-2.46-3.83-5.84-6.17-9.35-5.37-1.8.41-2.89,4.53-4,7.11C460.77,56.38,461,57.89,460.81,60.32Z" transform="translate(-15.23 -2.87)"/><path class="b" d="M357.25,59.44c-.09,6,.66,11.6,5.13,16.16s9.24,5.27,14.69,1.79a14,14,0,0,1,2.9-1.81c1-.33,3.06-.45,3.21-.07.49,1.2.93,3.24.28,3.95-5.59,6.15-11.72,12-20.46,12.59-3.41.22-7.51-1.48-10.39-3.56-11.9-8.59-15.07-29.52-1.07-41.25a145.36,145.36,0,0,1,13.24-9.55,7.31,7.31,0,0,1,8.64.28,84.16,84.16,0,0,1,10.22,8.51c2.93,3,1.72,6.84-2.17,8.49A44.71,44.71,0,0,0,376,57.49c-2.66,1.59-4,.43-5.43-1.81a36.14,36.14,0,0,0-6-7.18c-2.36-2.09-4.64-1.42-5.93,1.64a9.28,9.28,0,0,0-1,2.43C357.37,54.85,357.35,57.15,357.25,59.44Z" transform="translate(-15.23 -2.87)"/><path class="c" d="M107,106.42c3-10.7,12.86-15.78,22.41-12.08,13,5,25.86,10.51,38.9,15.48,12.58,4.8,12.56,4.17,18-6.9A41.61,41.61,0,0,1,189,98.71l1.48.49c-.32,2.64-.32,5.36-1,7.9-3.58,13-14,17.68-26.38,12.06-9.62-4.36-19.17-8.89-28.8-13.22-3.24-1.45-6.64-2.53-10-3.78-5.18-1.94-10-1.53-14.26,2.27A25,25,0,0,1,107,106.42Z" transform="translate(-15.23 -2.87)"/><path class="a" d="M266.11,39.56c3.76,7.3,7.08,13.75,10.69,20.78h-20C260,53.23,262.84,46.86,266.11,39.56Z" transform="translate(-15.23 -2.87)"/><path class="a" d="M38.28,72.64c6.56-5.43,12.48-10.45,18.54-15.3,2.84-2.26,5.72-.57,8.13.94,4.64,2.92,7.16,11.58,4.67,16.45-1,1.85-3,4.14-4.78,4.39A36.08,36.08,0,0,1,38.28,72.64Z" transform="translate(-15.23 -2.87)"/><path class="a" d="M124.68,30c2.65.4,5.31.72,7.94,1.19C147,33.75,149.7,44.08,149,55.45c-.3,5-2.59,10-4.59,14.68S138,76.8,133.5,78.41a4.35,4.35,0,0,1-2.59.16C119.62,75.08,110.29,68.57,105,58,97.85,43.49,108.31,29.13,124.68,30Z" transform="translate(-15.23 -2.87)"/><path class="a" d="M460.81,60.32c.19-2.43,0-3.94.47-5.12,1.1-2.58,2.19-6.7,4-7.11,3.51-.8,6.89,1.54,9.35,5.37Z" transform="translate(-15.23 -2.87)"/></svg>